<svg xmlns="http://www.w3.org/2000/svg" width="25" height="25" id="call"><g fill="#fff" transform="translate(4.674 -1032.052)"><circle cx="657.054" cy="437.094" r="15.268" fill="#9257a2" fill-rule="evenodd" transform="translate(-530.112 686.697) scale(.81871)"></circle><path style="line-height:normal;text-indent:0;text-align:start;text-decoration-line:none;text-decoration-style:solid;text-decoration-color:#000;text-transform:none;block-progression:tb;isolation:auto;mix-blend-mode:normal" fill="#6c4676" d="M18.713 23.336a12.5 12.5 0 0 0 .846-.52 12.5 12.5 0 0 0 3.459-3.562c.17-.27.33-.547.478-.83L12.998 7.926l-2.164 1.25a2.474 2.474 0 0 0-.928.957L6.773 7a5.002 5.002 0 0 0-1.654 4.703l10.608 13.045.982-.4c-.053-.285-.065.35-.057.068z" color="#000" font-family="sans-serif" font-weight="400" transform="translate(-4.674 1032.052)"></path><path style="line-height:normal;text-indent:0;text-align:start;text-decoration-line:none;text-decoration-style:solid;text-decoration-color:#000;text-transform:none;block-progression:tb;isolation:auto;mix-blend-mode:normal" d="M3.256 1.992a5.002 5.002 0 0 0-1.654 4.703l.982-.181A3.998 3.998 0 0 1 3.91 2.752l-.654-.76Zm6.224.926-2.164 1.25A2.505 2.505 0 0 0 6.4 7.582l2.498 4.326a2.51 2.51 0 0 0 3.42.928l2.164-1.25-1.5-2.6-1.289.744c-.31.179-.37.108-.478.034a.703.703 0 0 1-.178-.19l-.006-.011-1.52-2.633-.003-.01s-.075-.134-.088-.274c-.013-.139-.05-.206.225-.357h.003l1.334-.77-.75-1.3-.752-1.301Zm-5.027.88a3.497 3.497 0 0 0-.748 2.366l.998-.055a2.501 2.501 0 0 1 .533-1.691l-.783-.62Zm4.662.483v.002l.25.436.252.433-.457.264h-.002c-.573.32-.771.917-.732 1.324.039.408.23.703.23.703l1.492 2.584s.158.322.5.557c.343.235.955.346 1.541.01h.002l.424-.246.502.869-1.299.748a1.493 1.493 0 0 1-2.052-.559h-.002L7.268 7.08a1.486 1.486 0 0 1 .548-2.049l1.3-.75z" color="#000" font-family="sans-serif" font-weight="400" overflow="visible" transform="translate(-1.156 1037.06)"></path></g></svg>