<svg xmlns="http://www.w3.org/2000/svg" xmlns:xlink="http://www.w3.org/1999/xlink" viewBox="0 0 100 100" id="charminar"><defs><linearGradient id="a"><stop offset="0" stop-color="#000092"></stop><stop offset="1" stop-color="#ff00f3"></stop></linearGradient><linearGradient id="b" x1="24.5" x2="71" y1="50.5" y2="50.5" gradientUnits="userSpaceOnUse" xlink:href="#a"></linearGradient></defs><path fill="url(#b)" d="M30 18.5c-.3 0-.5.2-.5.5v1.7l-.5.3c-.9.6-1.5 1.6-1.5 2.7V27H27c-.3 0-.5.2-.5.5v3c0 .3.2.5.5.5h.5v3.5H26c-.3 0-.5.2-.5.5v4c0 .3.2.5.5.5h1.5v7H25c-.3 0-.5.2-.5.5v12c0 .3.2.5.5.5h1.5v22H25c-.3 0-.5.2-.5.5s.2.5.5.5h50c.3 0 .5-.2.5-.5s-.2-.5-.5-.5h-1.5v-22H75c.3 0 .5-.2.5-.5V47c0-.3-.2-.5-.5-.5h-2.5v-7H74c.3 0 .5-.2.5-.5v-4c0-.3-.2-.5-.5-.5h-1.5V31h.5c.3 0 .5-.2.5-.5v-3c0-.3-.2-.5-.5-.5h-.5v-3.3c0-1.1-.5-2.1-1.5-2.7l-.5-.3V19c0-.3-.2-.5-.5-.5s-.5.2-.5.5v1.7l-.5.3c-.9.6-1.5 1.6-1.5 2.7V27H67c-.3 0-.5.2-.5.5v3c0 .3.2.5.5.5h.5v3.5H66c-.3 0-.5.2-.5.5v4c0 .3.2.5.5.5h1.5v1h-35v-1H34c.3 0 .5-.2.5-.5v-4c0-.3-.2-.5-.5-.5h-1.5V31h.5c.3 0 .5-.2.5-.5v-3c0-.3-.2-.5-.5-.5h-.5v-3.3c0-1.1-.5-2.1-1.5-2.7l-.5-.3V19c0-.3-.2-.5-.5-.5zm0 3.1.5.3c.6.4.9 1 1 1.6h-3c.1-.7.4-1.3 1-1.6l.5-.3zm40 0 .5.3c.6.4.9 1 1 1.6h-3c.1-.7.4-1.3 1-1.6l.5-.3zm-41.5 2.9h3V27h-1v-1c0-.3-.2-.5-.5-.5s-.5.2-.5.5v1h-1v-2.5zm40 0h3V27h-1v-1c0-.3-.2-.5-.5-.5s-.5.2-.5.5v1h-1v-2.5zm-41 3.5h5v2h-1v-.5c0-.3-.2-.5-.5-.5s-.5.2-.5.5v.5h-1v-.5c0-.3-.2-.5-.5-.5s-.5.2-.5.5v.5h-1v-2zm40 0h5v2h-1v-.5c0-.3-.2-.5-.5-.5s-.5.2-.5.5v.5h-1v-.5c0-.3-.2-.5-.5-.5s-.5.2-.5.5v.5h-1v-2zm-39 3h3v3.5h-3V31zm40 0h3v3.5h-3V31zm-42 4.5h7v3h-1V37c0-.3-.2-.5-.5-.5s-.5.2-.5.5v1.5h-1V37c0-.3-.2-.5-.5-.5s-.5.2-.5.5v1.5h-1V37c0-.3-.2-.5-.5-.5s-.5.2-.5.5v1.5h-1v-3zm40 0h7v3h-1V37c0-.3-.2-.5-.5-.5s-.5.2-.5.5v1.5h-1V37c0-.3-.2-.5-.5-.5s-.5.2-.5.5v1.5h-1V37c0-.3-.2-.5-.5-.5s-.5.2-.5.5v1.5h-1v-3zm-38 4h3v7h-3v-7zm40 0h3v7h-3v-7zm-36 2h35v1h-35v-1zm0 2h35v3h-2V46c0-.8-.7-1.5-1.5-1.5s-1.5.7-1.5 1.5v.5h-1V46c0-.8-.7-1.5-1.5-1.5s-1.5.7-1.5 1.5v.5h-1V46c0-.8-.7-1.5-1.5-1.5s-1.5.7-1.5 1.5v.5h-1V46c0-.8-.7-1.5-1.5-1.5s-1.5.7-1.5 1.5v.5h-1V46c0-.8-.7-1.5-1.5-1.5s-1.5.7-1.5 1.5v.5h-1V46c0-.8-.7-1.5-1.5-1.5s-1.5.7-1.5 1.5v.5h-1V46c0-.8-.7-1.5-1.5-1.5s-1.5.7-1.5 1.5v.5h-1V46c0-.8-.7-1.5-1.5-1.5s-1.5.7-1.5 1.5v.5h-2v-3zm3.5 2c.3 0 .5.2.5.5v.5h-1V46c0-.3.2-.5.5-.5zm4 0c.3 0 .5.2.5.5v.5h-1V46c0-.3.2-.5.5-.5zm4 0c.3 0 .5.2.5.5v.5h-1V46c0-.3.2-.5.5-.5zm4 0c.3 0 .5.2.5.5v.5h-1V46c0-.3.2-.5.5-.5zm4 0c.3 0 .5.2.5.5v.5h-1V46c0-.3.2-.5.5-.5zm4 0c.3 0 .5.2.5.5v.5h-1V46c0-.3.2-.5.5-.5zm4 0c.3 0 .5.2.5.5v.5h-1V46c0-.3.2-.5.5-.5zm4 0c.3 0 .5.2.5.5v.5h-1V46c0-.3.2-.5.5-.5zm-38.5 2h9v11h-9v-11zm10 0h1v.5c0 .3.2.5.5.5s.5-.2.5-.5v-.5h1v.5c0 .3.2.5.5.5s.5-.2.5-.5v-.5h1v.5c0 .3.2.5.5.5s.5-.2.5-.5v-.5h1v.5c0 .3.2.5.5.5s.5-.2.5-.5v-.5h1v.5c0 .3.2.5.5.5s.5-.2.5-.5v-.5h1v.5c0 .3.2.5.5.5s.5-.2.5-.5v-.5h1v.5c0 .3.2.5.5.5s.5-.2.5-.5v-.5h1v.5c0 .3.2.5.5.5s.5-.2.5-.5v-.5h1v.5c0 .3.2.5.5.5s.5-.2.5-.5v-.5h1v.5c0 .3.2.5.5.5s.5-.2.5-.5v-.5h1v.5c0 .3.2.5.5.5s.5-.2.5-.5v-.5h1v.5c0 .3.2.5.5.5s.5-.2.5-.5v-.5h1v.5c0 .3.2.5.5.5s.5-.2.5-.5v-.5h1v.5c0 .3.2.5.5.5s.5-.2.5-.5v-.5h1v11h-1V54c0-2.6-2.2-3.4-2.3-3.5h-.3c-.1 0-2.4.9-2.4 3.5v4.5h-1V54c0-2.6-2.2-3.4-2.3-3.5h-.3c-.1 0-2.4.9-2.4 3.5v4.5h-5V54c0-2.6-2.2-3.4-2.3-3.5h-.3c-.1 0-2.4.9-2.4 3.5v4.5h-1V54c0-2.6-2.2-3.4-2.3-3.5h-.3c-.1 0-2.4.9-2.4 3.5v4.5h-1v-11zm30 0h9v11h-9v-11zm-37.5 1c-.8 0-1.5.7-1.5 1.5v2c0 .3.2.5.5.5h2c.3 0 .5-.2.5-.5v-2c0-.8-.7-1.5-1.5-1.5zm4 0c-.8 0-1.5.7-1.5 1.5v2c0 .3.2.5.5.5h2c.3 0 .5-.2.5-.5v-2c0-.8-.7-1.5-1.5-1.5zm36 0c-.8 0-1.5.7-1.5 1.5v2c0 .3.2.5.5.5h2c.3 0 .5-.2.5-.5v-2c0-.8-.7-1.5-1.5-1.5zm4 0c-.8 0-1.5.7-1.5 1.5v2c0 .3.2.5.5.5h2c.3 0 .5-.2.5-.5v-2c0-.8-.7-1.5-1.5-1.5zm-44 1c.3 0 .5.2.5.5v1.5h-1V50c0-.3.2-.5.5-.5zm4 0c.3 0 .5.2.5.5v1.5h-1V50c0-.3.2-.5.5-.5zm36 0c.3 0 .5.2.5.5v1.5h-1V50c0-.3.2-.5.5-.5zm4 0c.3 0 .5.2.5.5v1.5h-1V50c0-.3.2-.5.5-.5zm-33 2c.4.2 1.5.9 1.5 2.5v4.5h-3V54c0-1.5 1.1-2.2 1.5-2.5zm6 0c.4.2 1.5.9 1.5 2.5v4.5h-3V54c0-1.5 1.1-2.2 1.5-2.5zm5 0c-.8 0-1.5.7-1.5 1.5s.7 1.5 1.5 1.5 1.5-.7 1.5-1.5-.7-1.5-1.5-1.5zm5 0c.4.2 1.5.9 1.5 2.5v4.5h-3V54c0-1.5 1.1-2.2 1.5-2.5zm6 0c.4.2 1.5.9 1.5 2.5v4.5h-3V54c0-1.5 1.1-2.2 1.5-2.5zm-11 1c.3 0 .5.2.5.5s-.2.5-.5.5-.5-.2-.5-.5.2-.5.5-.5zm-22 1c-.8 0-1.5.7-1.5 1.5v2c0 .3.2.5.5.5h2c.3 0 .5-.2.5-.5v-2c0-.8-.7-1.5-1.5-1.5zm4 0c-.8 0-1.5.7-1.5 1.5v2c0 .3.2.5.5.5h2c.3 0 .5-.2.5-.5v-2c0-.8-.7-1.5-1.5-1.5zm36 0c-.8 0-1.5.7-1.5 1.5v2c0 .3.2.5.5.5h2c.3 0 .5-.2.5-.5v-2c0-.8-.7-1.5-1.5-1.5zm4 0c-.8 0-1.5.7-1.5 1.5v2c0 .3.2.5.5.5h2c.3 0 .5-.2.5-.5v-2c0-.8-.7-1.5-1.5-1.5zm-44 1c.3 0 .5.2.5.5v1.5h-1V55c0-.3.2-.5.5-.5zm4 0c.3 0 .5.2.5.5v1.5h-1V55c0-.3.2-.5.5-.5zm36 0c.3 0 .5.2.5.5v1.5h-1V55c0-.3.2-.5.5-.5zm4 0c.3 0 .5.2.5.5v1.5h-1V55c0-.3.2-.5.5-.5zm-44.5 5h5v22h-5v-22zm6 0h1v.5c0 .3.2.5.5.5s.5-.2.5-.5v-.5h1v.5c0 .3.2.5.5.5s.5-.2.5-.5v-.5h1v22h-5v-22zm5.9 0h1.1v.5c0 .3.2.5.5.5s.5-.2.5-.5v-.5h1v.5c0 .3.2.5.5.5s.5-.2.5-.5v-.5h1v.5c0 .3.2.5.5.5s.5-.2.5-.5v-.5h1v.5c0 .3.2.5.5.5s.5-.2.5-.5v-.5h1v.5c0 .3.2.5.5.5s.5-.2.5-.5v-.5h1v.5c0 .3.2.5.5.5s.5-.2.5-.5v-.5h1v.5c0 .3.2.5.5.5s.5-.2.5-.5v-.5h1v.5c0 .3.2.5.5.5s.5-.2.5-.5v-.5h1v.5c0 .3.2.5.5.5s.5-.2.5-.5v-.5h1v.5c0 .3.2.5.5.5s.5-.2.5-.5v-.5h1v22h-2v-9.9c0-3.4-1.9-6.5-5.2-8.3l-3.1-1.7c-.2-.1-.3-.1-.5 0l-3.1 1.7c-3.2 1.8-5.2 4.9-5.2 8.3v9.9h-2v-22zm22.1 0h1v.5c0 .3.2.5.5.5s.5-.2.5-.5v-.5h1v.5c0 .3.2.5.5.5s.5-.2.5-.5v-.5h1v22h-5v-22zm6 0h5v22h-5v-22zm-31.5 2c-.8 0-1.5.7-1.5 1.5v2c0 .3.2.5.5.5h2c.3 0 .5-.2.5-.5v-2c0-.8-.7-1.5-1.5-1.5zm6 0c-.8 0-1.5.7-1.5 1.5s.7 1.5 1.5 1.5 1.5-.7 1.5-1.5-.7-1.5-1.5-1.5zm16 0c-.8 0-1.5.7-1.5 1.5s.7 1.5 1.5 1.5 1.5-.7 1.5-1.5-.7-1.5-1.5-1.5zm6 0c-.8 0-1.5.7-1.5 1.5v2c0 .3.2.5.5.5h2c.3 0 .5-.2.5-.5v-2c0-.8-.7-1.5-1.5-1.5zm-28 1c.3 0 .5.2.5.5v1.5h-1V63c0-.3.2-.5.5-.5zm6 0c.3 0 .5.2.5.5s-.2.5-.5.5-.5-.2-.5-.5.2-.5.5-.5zm16 0c.3 0 .5.2.5.5s-.2.5-.5.5-.5-.2-.5-.5.2-.5.5-.5zm6 0c.3 0 .5.2.5.5v1.5h-1V63c0-.3.2-.5.5-.5zm-14 .1 2.8 1.6c2.9 1.6 4.7 4.4 4.7 7.4v9.9h-15v-9.9c0-3 1.7-5.8 4.6-7.4l2.9-1.6zm-14 3.9c-.8 0-1.5.7-1.5 1.5v2c0 .3.2.5.5.5h2c.3 0 .5-.2.5-.5v-2c0-.8-.7-1.5-1.5-1.5zm28 0c-.8 0-1.5.7-1.5 1.5v2c0 .3.2.5.5.5h2c.3 0 .5-.2.5-.5v-2c0-.8-.7-1.5-1.5-1.5zm-28 1c.3 0 .5.2.5.5v1.5h-1V68c0-.3.2-.5.5-.5zm28 0c.3 0 .5.2.5.5v1.5h-1V68c0-.3.2-.5.5-.5zm-28 4c-.8 0-1.5.7-1.5 1.5v2c0 .3.2.5.5.5h2c.3 0 .5-.2.5-.5v-2c0-.8-.7-1.5-1.5-1.5zm28 0c-.8 0-1.5.7-1.5 1.5v2c0 .3.2.5.5.5h2c.3 0 .5-.2.5-.5v-2c0-.8-.7-1.5-1.5-1.5zm-28 1c.3 0 .5.2.5.5v1.5h-1V73c0-.3.2-.5.5-.5zm28 0c.3 0 .5.2.5.5v1.5h-1V73c0-.3.2-.5.5-.5zm-28 4c-.8 0-1.5.7-1.5 1.5v2c0 .3.2.5.5.5h2c.3 0 .5-.2.5-.5v-2c0-.8-.7-1.5-1.5-1.5zm28 0c-.8 0-1.5.7-1.5 1.5v2c0 .3.2.5.5.5h2c.3 0 .5-.2.5-.5v-2c0-.8-.7-1.5-1.5-1.5zm-28 1c.3 0 .5.2.5.5v1.5h-1V78c0-.3.2-.5.5-.5zm28 0c.3 0 .5.2.5.5v1.5h-1V78c0-.3.2-.5.5-.5z"></path></svg>