<svg xmlns="http://www.w3.org/2000/svg" width="26" height="26" id="chat"><g transform="translate(0 -1026.362)"><circle cx="657.054" cy="437.094" r="15.268" fill="#9257a2" fill-rule="evenodd" transform="translate(-546.456 667.193) scale(.85146)"></circle><path style="line-height:normal;text-indent:0;text-align:start;text-decoration-line:none;text-decoration-style:solid;text-decoration-color:#000;text-transform:none;block-progression:tb;isolation:auto;mix-blend-mode:normal" fill="#6c4676" d="M17.674 25.117a13 13 0 0 0 .389-.142 13 13 0 0 0 1.17-.567 13 13 0 0 0 1.107-.68 13 13 0 0 0 1.035-.785 13 13 0 0 0 .951-.886 13 13 0 0 0 .858-.977 13 13 0 0 0 .755-1.057 13 13 0 0 0 .647-1.127 13 13 0 0 0 .531-1.185 13 13 0 0 0 .408-1.234 13 13 0 0 0 .079-.352L17.24 7.762a6.026 6.026 0 0 0-3.033-1.637 6.008 6.008 0 0 0-7.18 6.469c.006.056.017.11.024.166.016.135.032.269.056.4.014.07.033.138.05.207.026.117.052.233.085.346.02.069.046.135.069.203.034.104.068.21.109.31.036.092.078.18.12.268.034.075.067.15.105.223.042.083.091.162.138.242.045.077.088.156.137.23.053.081.111.159.168.237.047.065.093.13.142.193.064.08.133.156.202.233.047.053.093.106.142.158.027.028.05.058.078.086l9.022 9.021z" color="#000" font-family="sans-serif" font-weight="400" transform="translate(0 1026.362)"></path><path style="line-height:normal;text-indent:0;text-align:start;text-decoration-line:none;text-decoration-style:solid;text-decoration-color:#000;text-transform:none;block-progression:tb;isolation:auto;mix-blend-mode:normal" fill="#fff" d="M8 1.002c-3.308 0-6 2.692-6 6 0 3.14 2.258 5.508 5.566 5.904.006.156.008.351.004.56-.009.473-.037.95-.037.95a.5.5 0 0 0 0 .025.63.63 0 0 0 .254.463c.129.082.23.088.309.092.159.01.272-.021.402-.062.26-.083.557-.232.871-.463.576-.424 1.166-1.17 1.463-2.19 1.225-.498 2.073-1.227 2.543-2.123.501-.955.625-2.039.625-3.156 0-3.308-2.692-6-6-6zm0 1c2.767 0 5 2.233 5 5 0 1.04-.125 1.957-.512 2.693-.386.737-1.024 1.332-2.209 1.762a.5.5 0 0 0-.318.365 3.076 3.076 0 0 1-1.186 1.842c-.087.064-.137.072-.216.117.004-.134.008-.146.011-.295.005-.248.005-.496-.006-.703a2.003 2.003 0 0 0-.03-.29c-.01-.05-.02-.1-.06-.182a.503.503 0 0 0-.109-.157.544.544 0 0 0-.334-.15C4.903 11.802 3 9.802 3 7.002c0-2.767 2.233-5 5-5zm-3 4c-.546 0-1 .454-1 1s.454 1 1 1 1-.454 1-1-.454-1-1-1zm3 0c-.546 0-1 .454-1 1s.454 1 1 1 1-.454 1-1-.454-1-1-1zm3 0c-.546 0-1 .454-1 1s.454 1 1 1 1-.454 1-1-.454-1-1-1z" color="#000" font-family="sans-serif" font-weight="400" overflow="visible" transform="translate(5 1031.362)"></path></g></svg>