<svg xmlns="http://www.w3.org/2000/svg" xmlns:xlink="http://www.w3.org/1999/xlink" viewBox="0 0 100 100" id="gatewayofindia"><defs><linearGradient id="a"><stop offset="0" stop-color="#000092"></stop><stop offset="1" stop-color="#ff00f3"></stop></linearGradient><linearGradient id="b" x1="18.5" x2="76.933" y1="58" y2="58" gradientUnits="userSpaceOnUse" xlink:href="#a"></linearGradient></defs><path fill="url(#b)" d="M38.5 33.5c-.3 0-.5.2-.5.5v1.6c-.9.2-1.5 1-1.5 1.9v7H36c-.3 0-.5.2-.5.5v3.5H21c-.3 0-.5.2-.5.5v3c0 .3.2.5.5.5h.5v4H19c-.2 0-.3.1-.4.2-.1.1-.1.3-.1.5l1 3c.1.2.3.3.5.3h1.5v21H19c-.3 0-.5.2-.5.5s.2.5.5.5h62c.3 0 .5-.2.5-.5s-.2-.5-.5-.5h-2.5v-21H80c.2 0 .4-.1.5-.3l1-3c.1-.2 0-.3-.1-.5-.1-.1-.2-.2-.4-.2h-2.5v-4h.5c.3 0 .5-.2.5-.5v-3c0-.3-.2-.5-.5-.5H64.5V45c0-.3-.2-.5-.5-.5h-.5v-7c0-.9-.6-1.7-1.5-1.9V34c0-.3-.2-.5-.5-.5s-.5.2-.5.5v1.6c-.9.2-1.5 1-1.5 1.9v4h-19v-4c0-.9-.6-1.7-1.5-1.9V34c0-.3-.2-.5-.5-.5zm0 3c.6 0 1 .4 1 1v1h-2v-1c0-.6.4-1 1-1zm23 0c.6 0 1 .4 1 1v1h-2v-1c0-.6.4-1 1-1zm-24 3h2v5h-2v-5zm23 0h2v5h-2v-5zm-20 3h19v2h-19v-2zm-4 3h4v6h-4v-6zm5 0h17v6h-17v-6zm18 0h4v6h-4v-6zm-38 4h14v2h-14v-2zm43 0h14v2h-14v-2zm-42 3h13v4h-13v-4zm14 0h4v4h-4v-4zm5 0h2v4h-2v-4zm3 0h2v4h-2v-4zm3 0h2v4h-2v-4zm3 0h2v4h-2v-4zm3 0h2v4h-2v-4zm3 0h2v4h-2v-4zm3 0h4v4h-4v-4zm5 0h13v4h-13v-4zm-44.8 5h15.8v2H20.4l-.7-2zm16.8 0h4v2h-4v-2zm5 0h17v24h-1v-11c0-3.3-1.7-6.4-4.6-8.2l-2.7-1.7c-.2-.1-.4-.1-.5 0L47 62.3c-2.8 1.8-4.5 4.9-4.5 8.3v10.9h-1v-24zm18 0h4v2h-4v-2zm5 0h15.8l-.7 2H64.5v-2zm-42.1 3h13.1v21H34V70.1c0-2.7-1.5-5.1-4-6.3-.3-.2-.7-.2-1.1 0-2.4 1.2-3.9 3.6-4 6.3v11.4h-2.5v-21zm14.1 0h4v21h-4v-21zm23 0h4v21h-4v-21zm4.9 0h13v21H75V70.1c0-2.7-1.5-5.1-4-6.4-.3-.2-.7-.2-1.1 0-2.4 1.2-4 3.7-4 6.4v11.4h-1.5v-21zM50 61.6l2.4 1.5c2.6 1.6 4.1 4.4 4.1 7.5v11h-13v-11c0-3 1.5-5.8 4.1-7.4l2.4-1.6zm-20.6 2.9h.2c1.9 1 3.2 2.8 3.4 5h-7c.2-2.1 1.4-4 3.4-5zm41 0h.2c1.9 1 3.2 2.8 3.4 5h-7c.2-2.1 1.4-4 3.4-5zm-44.4 6h7v11h-1V75c0-2.6-2.2-3.4-2.3-3.5h-.3c-.1 0-2.4.9-2.4 3.5v6.5h-1v-11zm41 0h7v11h-1V75c0-2.6-2.2-3.4-2.3-3.5h-.3c-.1 0-2.4.9-2.4 3.5v6.5h-1v-11zm-37.5 2c.5.3 1.5 1 1.5 2.5v6.5h-3V75c0-1.5 1.1-2.2 1.5-2.5zm41 0c.5.3 1.5 1 1.5 2.5v6.5h-3V75c0-1.5 1.1-2.2 1.5-2.5z"></path></svg>