<svg xmlns="http://www.w3.org/2000/svg" xmlns:xlink="http://www.w3.org/1999/xlink" viewBox="0 0 100 100" id="hawamahal"><defs><linearGradient id="a"><stop offset="0" stop-color="#000092"></stop><stop offset="1" stop-color="#ff00f3"></stop></linearGradient><linearGradient id="b" x1="15.9" x2="76" y1="53.45" y2="53.45" gradientUnits="userSpaceOnUse" xlink:href="#a"></linearGradient></defs><path fill="url(#b)" d="M49.6 23.9c-.3 0-.5.2-.5.5v1.7l-1.5.8c-.6.3-1 .8-1.2 1.4-.2-.3-.4-.5-.7-.7l-.8-.6c-.2-.1-.4-.1-.6 0l-.8.6c-.9.6-1.4 1.7-1.4 2.8-.2-.2-.3-.3-.6-.4l-1.5-.8v-1.7c0-.3-.2-.5-.5-.5s-.5.2-.5.5v1.7l-1.5.8c-.8.5-1.3 1.2-1.5 2.1-.1-.2-.3-.3-.5-.5l-.8-.6c-.2-.1-.4-.1-.6 0l-.8.6c-.9.7-1.4 1.7-1.4 2.8v.6l-.4-.4-.8-.6c-.2-.1-.4-.1-.6 0l-.8.6c-.9.7-1.4 1.7-1.4 2.8v3c-.2-.2-.3-.3-.5-.4l-1.5-.8v-1.7c0-.3-.2-.5-.5-.5s-.5.2-.5.5v1.7l-1.5.8c-1 .5-1.5 1.6-1.5 2.7v2.4l-.4-.4-.8-.6c-.2-.1-.4-.1-.6 0l-.8.6c-.9.7-1.4 1.7-1.4 2.8V82h-1.5c-.3 0-.5.2-.5.5s.2.5.5.5h66c.3 0 .5-.2.5-.5s.2-.5-.1-.5h-1.5V47.5c0-1.1-.5-2.1-1.4-2.8l-.8-.6c-.2-.1-.4-.1-.6 0l-.8.6c-.1.1-.3.2-.4.4v-2.4c0-1.1-.6-2.1-1.5-2.7l-1.5-.8v-1.7c0-.3-.2-.5-.5-.5s-.5.2-.5.5v1.7l-1.5.8c-.2.1-.4.3-.5.4v-3c0-1.1-.5-2.1-1.4-2.8l-.8-.6c-.2-.1-.4-.1-.6 0l-.8.6c-.1.1-.3.2-.4.4v-.6c0-1.1-.5-2.1-1.4-2.8l-.8-.6c-.2-.1-.4-.1-.6 0l-.8.6c-.2.1-.3.3-.5.5-.2-.9-.7-1.7-1.5-2.1l-1.5-.8v-1.7c0-.3-.2-.5-.5-.5s-.5.2-.5.5v1.7l-1.5.8c-.2.1-.4.3-.6.4 0-1.1-.5-2.1-1.4-2.8l-.8-.6c-.2-.1-.4-.1-.6 0l-.8.6c-.3.2-.5.5-.7.7-.3-.6-.7-1.1-1.2-1.4l-1.5-.8v-1.7c0-.3-.2-.5-.5-.5zm.2 3.2 1.5.8c.6.4 1 1.1 1 1.8V37.5c-.2-.2-.3-.3-.5-.4l-1.7-1c-.2-.1-.3-.1-.5 0l-1.7 1c-.2.1-.4.3-.5.4v-7.8h-.1c0-.7.4-1.4 1-1.8l1.5-.8zm-.05.925a.557.557 0 0 0-.25.075l-.5.3c-.4.2-.7.7-.7 1.2v1.9c0 .3.2.5.5.5h2c.3 0 .5-.2.5-.5v-1.9c0-.5-.3-.9-.7-1.2l-.6-.3a.557.557 0 0 0-.25-.075zm-4.95.075.5.4c.6.5 1 1.2 1 2v7.6l-.4-.4-.8-.6c-.2-.1-.4-.1-.6 0l-.8.6c-.1.1-.3.2-.4.4v-7.6c0-.8.4-1.5 1-2l.5-.4zm10 0 .5.4c.6.5 1 1.2 1 2V38.1l-.4-.4-.8-.6c-.2-.1-.4-.1-.6 0l-.8.6c-.1.1-.3.2-.4.4v-7.6c0-.8.4-1.5 1-2l.5-.4zm-5 1 .3.2c.1.1.2.2.2.3V31h-1v-1.4c0-.1.1-.2.2-.3l.3-.2zm-5 .9c-.3 0-.5.2-.5.5v5c0 .3.2.5.5.5s.5-.2.5-.5v-5c0-.3-.2-.5-.5-.5zm10 0c-.3 0-.5.2-.5.5v5c0 .3.2.5.5.5s.5-.2.5-.5v-5c0-.3-.2-.5-.5-.5zm-15 .1 1.5.8c.6.4 1 1.1 1 1.8v6.8c-.2-.2-.3-.3-.5-.4l-1.7-1c-.2-.1-.3-.1-.5 0l-1.7 1c-.2.1-.4.3-.5.4v-6.8h-.1c0-.7.4-1.4 1-1.8l1.5-.8zm20 0 1.5.8c.6.4 1 1.1 1 1.8V39.5c-.2-.2-.3-.3-.5-.4l-1.7-1c-.2-.1-.3-.1-.5 0l-1.7 1c-.2.1-.4.3-.5.4V32.7c-.1-.7.3-1.4.9-1.8l1.5-.8zm-20.05.925a.557.557 0 0 0-.25.075l-.5.3c-.4.2-.7.7-.7 1.2v1.9c0 .3.2.5.5.5h2c.3 0 .5-.2.5-.5v-1.9c0-.5-.3-.9-.7-1.2l-.6-.3a.557.557 0 0 0-.25-.075zm20 0a.557.557 0 0 0-.25.075l-.5.3c-.4.2-.7.7-.7 1.2v1.9c0 .3.2.5.5.5h2c.3 0 .5-.2.5-.5v-1.9c0-.5-.3-.9-.7-1.2l-.6-.3a.557.557 0 0 0-.25-.075zM34.8 32.1l.5.4c.6.5 1 1.2 1 2v6.6l-.4-.4-.8-.6c-.2-.1-.4-.1-.6 0l-.8.6c-.1.1-.3.2-.4.4v-6.6c0-.8.4-1.5 1-2l.5-.4zm5 0 .3.2c.1.1.2.2.2.3V34h-1v-1.4c0-.1.1-.2.2-.3l.3-.2zm20 0 .3.2c.1.1.2.2.2.3V34h-1v-1.4c0-.1.1-.2.2-.3l.3-.2zm5 0 .5.4c.6.5 1 1.2 1 2v6.6l-.4-.4-.8-.6c-.2-.1-.4-.1-.6 0l-.8.6c-.1.1-.3.2-.4.4v-6.6c0-.8.4-1.5 1-2l.5-.4zm-30 1.9c-.3 0-.5.2-.5.5v4c0 .3.2.5.5.5s.5-.2.5-.5v-4c0-.3-.2-.5-.5-.5zm30 0c-.3 0-.5.2-.5.5v4c0 .3.2.5.5.5s.5-.2.5-.5v-4c0-.3-.2-.5-.5-.5zm-34 1.1.5.4c.6.5 1 1.2 1 2v4.6l-.4-.4-.8-.6c-.2-.1-.4-.1-.6 0l-.8.6c-.1.1-.3.2-.4.4v-4.6c0-.8.4-1.5 1-2l.5-.4zm38 0 .5.4c.6.5 1 1.2 1 2v4.6l-.4-.4-.8-.6c-.2-.1-.4-.1-.6 0l-.8.6c-.1.1-.3.2-.4.4v-4.6c0-.8.4-1.5 1-2l.5-.4zm-38 1.9c-.3 0-.5.2-.5.5v2c0 .3.2.5.5.5s.5-.2.5-.5v-2c0-.3-.2-.5-.5-.5zm38 0c-.3 0-.5.2-.5.5v2c0 .3.2.5.5.5s.5-.2.5-.5v-2c0-.3-.2-.5-.5-.5zm-18.9.1 1.5.8c.6.4 1 1.1 1 1.8v.8h-.1v7c-.2-.2-.3-.3-.5-.4l-1.7-1c-.2-.1-.3-.1-.5 0l-1.7 1c-.2.1-.4.3-.5.4v-7.8c0-.7.4-1.4 1-1.8l1.5-.8zm-.15.925a.557.557 0 0 0-.25.075l-.5.3c-.4.2-.7.7-.7 1.2v1.9c0 .3.2.5.5.5h2c.3 0 .5-.2.5-.5v-1.9c0-.5-.3-1-.7-1.2l-.6-.3a.557.557 0 0 0-.25-.075zm-4.95.075.5.4c.6.5 1 1.2 1 2v6.6l-.4-.4-.8-.6c-.2-.1-.4-.1-.6 0l-.8.6c-.1.1-.3.2-.4.4v-6.6c0-.8.4-1.5 1-2l.5-.4zm10 0 .5.4c.6.5 1 1.2 1 2V47.1l-.4-.4-.8-.6c-.2-.1-.4-.1-.6 0l-.8.6c-.1.1-.3.2-.4.4v-6.6c0-.8.4-1.5 1-2l.5-.4zm-14.9 1 1.5.8c.6.4 1 1.1 1 1.8v5.4h-.1v1.4c-.2-.2-.3-.3-.5-.4l-1.7-1c-.2-.1-.3-.1-.5 0l-1.7 1c-.2.1-.4.3-.5.4v-6.8c0-.7.4-1.4 1-1.8l1.5-.8zm9.9 0 .3.2c.1.1.2.2.2.3V41h-1v-1.4c0-.1.1-.2.2-.3l.3-.2zm10.1 0 1.5.8c.6.4 1 1.1 1 1.8v1.8h-.1v5c-.2-.2-.3-.3-.5-.4l-1.7-1c-.2-.1-.3-.1-.5 0l-1.7 1c-.2.1-.4.3-.5.4V41.7c0-.7.4-1.4 1-1.8l1.5-.8zm-15.1.9c-.3 0-.5.2-.5.5v4c0 .3.2.5.5.5s.5-.2.5-.5v-4c0-.3-.2-.5-.5-.5zm10 0c-.3 0-.5.2-.5.5v4c0 .3.2.5.5.5s.5-.2.5-.5v-4c0-.3-.2-.5-.5-.5zm-15.05.025a.557.557 0 0 0-.25.075l-.5.3c-.4.2-.7.7-.7 1.2v1.9c0 .3.2.5.5.5h2c.3 0 .5-.2.5-.5v-1.9c0-.5-.3-1-.7-1.2l-.6-.3a.557.557 0 0 0-.25-.075zm20 0a.557.557 0 0 0-.25.075l-.5.3c-.4.2-.7.7-.7 1.2v1.9c0 .3.2.5.5.5h2c.3 0 .5-.2.5-.5v-1.9c0-.5-.3-1-.7-1.2l-.6-.3a.557.557 0 0 0-.25-.075zM25.8 40.1l1.5.8c.6.4 1 1.1 1 1.8v1.8c-.2-.2-.3-.3-.5-.4l-1.7-1c-.2-.1-.3-.1-.5 0l-1.7 1c-.2.1-.4.3-.5.4v-1.8c-.1-.7.3-1.4.9-1.8l1.5-.8zm48 0 1.5.8c.6.4 1 1.1 1 1.8v1.8c-.2-.2-.3-.3-.5-.4l-1.7-1c-.2-.1-.3-.1-.5 0l-1.7 1c-.2.1-.4.3-.5.4v-1.8c-.1-.7.3-1.4.9-1.8l1.5-.8zm-39 1 .5.4c.6.5 1 1.2 1 2v5.6l-.4-.4-.8-.6c-.2-.1-.4-.1-.6 0l-.8.6c-.1.1-.3.2-.4.4v-5.6c0-.8.4-1.5 1-2l.5-.4zm5 0 .3.2c.1.1.2.2.2.3V43h-1v-1.4c0-.1.1-.2.2-.3l.3-.2zm20 0 .3.2c.1.1.2.2.2.3V43h-1v-1.4c0-.1.1-.2.2-.3l.3-.2zm5 0 .5.4c.6.5 1 1.2 1 2v5.6l-.4-.4-.8-.6c-.2-.1-.4-.1-.6 0l-.8.6c-.1.1-.3.2-.4.4v-5.6c0-.8.4-1.5 1-2l.5-.4zm-34 1 .5.4c.6.5 1 1.2 1 2v5.6l-.4-.4-.8-.6c-.2-.1-.4-.1-.6 0l-.8.6c-.1.1-.3.2-.4.4v-5.6c0-.8.4-1.5 1-2l.5-.4zm38 0 .5.4c.6.5 1 1.2 1 2v5.6l-.4-.4-.8-.6c-.2-.1-.4-.1-.6 0l-.8.6c-.1.1-.3.2-.4.4v-5.6c0-.8.4-1.5 1-2l.5-.4zm-34 .9c-.3 0-.5.2-.5.5v3c0 .3.2.5.5.5s.5-.2.5-.5v-3c0-.3-.2-.5-.5-.5zm30 0c-.3 0-.5.2-.5.5v3c0 .3.2.5.5.5s.5-.2.5-.5v-3c0-.3-.2-.5-.5-.5zm-34 1c-.3 0-.5.2-.5.5v3c0 .3.2.5.5.5s.5-.2.5-.5v-3c0-.3-.2-.5-.5-.5zm38 0c-.3 0-.5.2-.5.5v3c0 .3.2.5.5.5s.5-.2.5-.5v-3c0-.3-.2-.5-.5-.5zm-43 .1 1.5.8c.6.4 1 1.1 1 1.8v4.8c-.2-.2-.3-.3-.5-.4l-1.7-1c-.2-.1-.3-.1-.5 0l-1.7 1c-.2.1-.4.3-.5.4v-4.8h-.1c0-.7.4-1.4 1-1.8l1.5-.8zm48.1 0 1.5.8c.6.4 1 1.1 1 1.8v.8h-.1v4c-.2-.2-.3-.3-.5-.4l-1.7-1c-.2-.1-.3-.1-.5 0l-1.7 1c-.2.1-.4.3-.5.4v-4.8c0-.7.4-1.4 1-1.8l1.5-.8zm-48.15.925a.557.557 0 0 0-.25.075l-.5.3c-.4.2-.7.7-.7 1.2v1.9c0 .3.2.5.5.5h2c.3 0 .5-.2.5-.5v-1.9c0-.5-.3-.9-.7-1.2l-.6-.3a.557.557 0 0 0-.25-.075zm48 0a.557.557 0 0 0-.25.075l-.5.3c-.4.2-.7.7-.7 1.2v1.9c0 .3.2.5.5.5h2c.3 0 .5-.2.5-.5v-1.9c0-.5-.3-1-.7-1.2l-.6-.3a.557.557 0 0 0-.25-.075zM20.8 45.1l.5.4c.6.5 1 1.2 1 2v4.6l-.4-.4-.8-.6c-.2-.1-.4-.1-.6 0l-.8.6c-.1.1-.3.2-.4.4v-4.6c0-.8.4-1.5 1-2l.5-.4zm58 0 .5.4c.6.5 1 1.2 1 2v4.6l-.4-.4-.8-.6c-.2-.1-.4-.1-.6 0l-.8.6c-.1.1-.3.2-.4.4v-4.6c0-.8.4-1.5 1-2l.5-.4zm-53 1 .3.2c.1.1.2.2.2.3V48h-1v-1.4c0-.1.1-.2.2-.3l.3-.2zm48 0 .3.2c.1.1.2.2.2.3V48h-1v-1.4c0-.1.1-.2.2-.3l.3-.2zm-53 .9c-.3 0-.5.2-.5.5v2c0 .3.2.5.5.5s.5-.2.5-.5v-2c0-.3-.2-.5-.5-.5zm58 0c-.3 0-.5.2-.5.5v2c0 .3.2.5.5.5s.5-.2.5-.5v-2c0-.3-.2-.5-.5-.5zm-34 .1.5.4c.6.5 1 1.2 1 2v7.6l-.4-.4-.8-.6c-.2-.1-.4-.1-.6 0l-.8.6c-.1.1-.3.2-.4.4V49.5c0-.8.4-1.5 1-2l.5-.4zm5.1 0 1.5.8c.6.4 1 1.1 1 1.8v5.4h-.1v2.4c-.2-.2-.3-.3-.5-.4l-1.7-1c-.2-.1-.3-.1-.5 0l-1.7 1c-.2.1-.4.3-.5.4v-7.8c0-.7.4-1.4 1-1.8l1.5-.8zm4.9 0 .5.4c.6.5 1 1.2 1 2V57.1l-.4-.4-.8-.6c-.2-.1-.4-.1-.6 0l-.8.6c-.1.1-.3.2-.4.4V49.5c0-.8.4-1.5 1-2l.5-.4zm-5.05.925a.557.557 0 0 0-.25.075l-.5.3c-.4.2-.7.7-.7 1.2v1.9c0 .3.2.5.5.5h2c.3 0 .5-.2.5-.5v-1.9c0-.5-.3-1-.7-1.2l-.6-.3a.557.557 0 0 0-.25-.075zm-9.85.075 1.5.8c.6.4 1 1.1 1 1.8v5.4h-.1v1.4c-.2-.2-.3-.3-.5-.4l-1.7-1c-.2-.1-.3-.1-.5 0l-1.7 1c-.2.1-.4.3-.5.4v-6.8c0-.7.4-1.4 1-1.8l1.5-.8zm20 0 1.5.8c.6.4 1 1.1 1 1.8v.8h-.1v6c-.2-.2-.3-.3-.5-.4l-1.7-1c-.2-.1-.3-.1-.5 0l-1.7 1c-.2.1-.4.3-.5.4V50.7c0-.7.4-1.4 1-1.8l1.5-.8zm-15.1.9c-.3 0-.5.2-.5.5v5c0 .3.2.5.5.5s.5-.2.5-.5v-5c0-.3-.2-.5-.5-.5zm10 0c-.3 0-.5.2-.5.5v5c0 .3.2.5.5.5s.5-.2.5-.5v-5c0-.3-.2-.5-.5-.5zm-15.05.025a.557.557 0 0 0-.25.075l-.5.3c-.4.2-.7.7-.7 1.2v1.9c0 .3.2.5.5.5h2c.3 0 .5-.2.5-.5v-1.9c0-.5-.3-1-.7-1.2l-.6-.3a.557.557 0 0 0-.25-.075zm20 0a.557.557 0 0 0-.25.075l-.5.3c-.4.2-.7.7-.7 1.2v1.9c0 .3.2.5.5.5h2c.3 0 .5-.2.5-.5v-1.9c0-.5-.3-1-.7-1.2l-.6-.3a.557.557 0 0 0-.25-.075zM34.8 49.1l.5.4c.6.5 1 1.2 1 2v5.6l-.4-.4-.8-.6c-.2-.1-.4-.1-.6 0l-.8.6c-.1.1-.3.2-.4.4v-5.6c0-.8.4-1.5 1-2l.5-.4zm15 0 .3.2c.1.1.2.2.2.3V51h-1v-1.4c0-.1.1-.2.2-.3l.3-.2zm15 0 .5.4c.6.5 1 1.2 1 2v5.6l-.4-.4-.8-.6c-.2-.1-.4-.1-.6 0l-.8.6c-.1.1-.3.2-.4.4v-5.6c0-.8.4-1.5 1-2l.5-.4zm-34 1 .5.4c.6.5 1 1.2 1 2v4.6l-.4-.4-.8-.6c-.2-.1-.4-.1-.6 0l-.8.6c-.1.1-.3.2-.4.4v-4.6c0-.8.4-1.5 1-2l.5-.4zm9 0 .3.2c.1.1.2.2.2.3V52h-1v-1.4c0-.1.1-.2.2-.3l.3-.2zm20 0 .3.2c.1.1.2.2.2.3V52h-1v-1.4c0-.1.1-.2.2-.3l.3-.2zm9 0 .5.4c.6.5 1 1.2 1 2v4.6l-.4-.4-.8-.6c-.2-.1-.4-.1-.6 0l-.8.6c-.1.1-.3.2-.4.4v-4.6c0-.8.4-1.5 1-2l.5-.4zm-34 .9c-.3 0-.5.2-.5.5v3c0 .3.2.5.5.5s.5-.2.5-.5v-3c0-.3-.2-.5-.5-.5zm30 0c-.3 0-.5.2-.5.5v3c0 .3.2.5.5.5s.5-.2.5-.5v-3c0-.3-.2-.5-.5-.5zm-39 .1 1.5.8c.6.4 1 1.1 1 1.8v4.8c-.2-.2-.3-.3-.5-.4l-1.7-1c-.2-.1-.3-.1-.5 0l-1.7 1c-.2.1-.4.3-.5.4v-4.8h-.1c0-.7.4-1.4 1-1.8l1.5-.8zm48.1 0 1.5.8c.6.4 1 1.1 1 1.8v.8h-.1v4c-.2-.2-.3-.3-.5-.4l-1.7-1c-.2-.1-.3-.1-.5 0l-1.7 1c-.2.1-.4.3-.5.4v-4.8c0-.7.4-1.4 1-1.8l1.5-.8zm-43.1.9c-.3 0-.5.2-.5.5v2c0 .3.2.5.5.5s.5-.2.5-.5v-2c0-.3-.2-.5-.5-.5zm38 0c-.3 0-.5.2-.5.5v2c0 .3.2.5.5.5s.5-.2.5-.5v-2c0-.3-.2-.5-.5-.5zm-43.05.025a.557.557 0 0 0-.25.075l-.5.3c-.4.2-.7.7-.7 1.2v1.9c0 .3.2.5.5.5h2c.3 0 .5-.2.5-.5v-1.9c0-.5-.3-.9-.7-1.2l-.6-.3a.557.557 0 0 0-.25-.075zm48 0a.557.557 0 0 0-.25.075l-.5.3c-.4.2-.7.7-.7 1.2v1.9c0 .3.2.5.5.5h2c.3 0 .5-.2.5-.5v-1.9c0-.5-.3-1-.7-1.2l-.6-.3a.557.557 0 0 0-.25-.075zM20.8 52.1l.5.4c.6.5 1 1.2 1 2v4.6l-.4-.4-.8-.6c-.2-.1-.4-.1-.6 0l-.8.6c-.1.1-.3.2-.4.4v-4.6c0-.8.4-1.5 1-2l.5-.4zm58 0 .5.4c.6.5 1 1.2 1 2v4.6l-.4-.4-.8-.6c-.2-.1-.4-.1-.6 0l-.8.6c-.1.1-.3.2-.4.4v-4.6c0-.8.4-1.5 1-2l.5-.4zm-53 1 .3.2c.1.1.2.2.2.3V55h-1v-1.4c0-.1.1-.2.2-.3l.3-.2zm48 0 .3.2c.1.1.2.2.2.3V55h-1v-1.4c0-.1.1-.2.2-.3l.3-.2zm-53 .9c-.3 0-.5.2-.5.5v2c0 .3.2.5.5.5s.5-.2.5-.5v-2c0-.3-.2-.5-.5-.5zm58 0c-.3 0-.5.2-.5.5v2c0 .3.2.5.5.5s.5-.2.5-.5v-2c0-.3-.2-.5-.5-.5zm-48 3.1.5.4c.6.5 1 1.2 1 2V66h-3v-6.5c0-.8.4-1.5 1-2l.5-.4zm4 0 .5.4c.6.5 1 1.2 1 2V66h-3v-6.5c0-.8.4-1.5 1-2l.5-.4zm5 0 1.5.8c.6.4 1 1.1 1 1.8V66h-5V59.7c0-.7.4-1.4 1-1.8l1.5-.8zm5 0 .5.4c.6.5 1 1.2 1 2V66h-3v-6.5c0-.8.4-1.5 1-2l.5-.4zm5 0 1.5.8c.6.4 1 1.1 1 1.8V66h-5v-6.3c0-.7.4-1.4 1-1.8l1.5-.8zm5 0 .5.4c.6.5 1 1.2 1 2V66h-3V59.5c0-.8.4-1.5 1-2l.5-.4zm5 0 1.5.8c.6.4 1 1.1 1 1.8V66h-5V59.7c0-.7.4-1.4 1-1.8l1.5-.8zm5 0 .5.4c.6.5 1 1.2 1 2V66h-3V59.5c0-.8.4-1.5 1-2l.5-.4zm4 0 .5.4c.6.5 1 1.2 1 2V66h-3v-6.5c0-.8.4-1.5 1-2l.5-.4zm-29.05.925a.557.557 0 0 0-.25.075l-.5.3c-.4.2-.7.7-.7 1.2v1.9c0 .3.2.5.5.5h2c.3 0 .5-.2.5-.5v-1.9c0-.5-.3-1-.7-1.2l-.6-.3a.557.557 0 0 0-.25-.075zm10 0a.557.557 0 0 0-.25.075l-.5.3c-.4.2-.7.7-.7 1.2v1.9c0 .3.2.5.5.5h2c.3 0 .5-.2.5-.5v-1.9c0-.5-.3-1-.7-1.2l-.6-.3a.557.557 0 0 0-.25-.075zm10 0a.557.557 0 0 0-.25.075l-.5.3c-.4.2-.7.7-.7 1.2v1.9c0 .3.2.5.5.5h2c.3 0 .5-.2.5-.5v-1.9c0-.5-.3-1-.7-1.2l-.6-.3a.557.557 0 0 0-.25-.075zM25.8 58.1l1.5.8c.6.4 1 1.1 1 1.8V66h-5v-5.3c0-.7.4-1.4 1-1.8l1.5-.8zm48 0 1.5.8c.6.4 1 1.1 1 1.8V66h-5v-5.3c0-.7.4-1.4 1-1.8l1.5-.8zm-43 .9c-.3 0-.5.2-.5.5v5c0 .3.2.5.5.5s.5-.2.5-.5v-5c0-.3-.2-.5-.5-.5zm4 0c-.3 0-.5.2-.5.5v5c0 .3.2.5.5.5s.5-.2.5-.5v-5c0-.3-.2-.5-.5-.5zm10 0c-.3 0-.5.2-.5.5v5c0 .3.2.5.5.5s.5-.2.5-.5v-5c0-.3-.2-.5-.5-.5zm10 0c-.3 0-.5.2-.5.5v5c0 .3.2.5.5.5s.5-.2.5-.5v-5c0-.3-.2-.5-.5-.5zm10 0c-.3 0-.5.2-.5.5v5c0 .3.2.5.5.5s.5-.2.5-.5v-5c0-.3-.2-.5-.5-.5zm4 0c-.3 0-.5.2-.5.5v5c0 .3.2.5.5.5s.5-.2.5-.5v-5c0-.3-.2-.5-.5-.5zm-43.05.025a.557.557 0 0 0-.25.075l-.5.3c-.4.2-.7.7-.7 1.2v1.9c0 .3.2.5.5.5h2c.3 0 .5-.2.5-.5v-1.9c0-.5-.3-1-.7-1.2l-.6-.3a.557.557 0 0 0-.25-.075zm48 0a.557.557 0 0 0-.25.075l-.5.3c-.4.2-.7.7-.7 1.2v1.9c0 .3.2.5.5.5h2c.3 0 .5-.2.5-.5v-1.9c0-.5-.3-1-.7-1.2l-.6-.3a.557.557 0 0 0-.25-.075zM20.8 59.1l.5.4c.6.5 1 1.2 1 2V66h-3v-4.5c0-.8.4-1.5 1-2l.5-.4zm19 0 .3.2c.1.1.2.2.2.3V61h-1v-1.4c0-.1.1-.2.2-.3l.3-.2zm10 0 .3.2c.1.1.2.2.2.3V61h-1v-1.4c0-.1.1-.2.2-.3l.3-.2zm10 0 .3.2c.1.1.2.2.2.3V61h-1v-1.4c0-.1.1-.2.2-.3l.3-.2zm19 0 .5.4c.6.5 1 1.2 1 2V66h-3v-4.5c0-.8.4-1.5 1-2l.5-.4zm-53 1 .3.2c.1.1.2.2.2.3V62h-1v-1.4c0-.1.1-.2.2-.3l.3-.2zm48 0 .3.2c.1.1.2.2.2.3V62h-1v-1.4c0-.1.1-.2.2-.3l.3-.2zm-53 .9c-.3 0-.5.2-.5.5v3c0 .3.2.5.5.5s.5-.2.5-.5v-3c0-.3-.2-.5-.5-.5zm58 0c-.3 0-.5.2-.5.5v3c0 .3.2.5.5.5s.5-.2.5-.5v-3c0-.3-.2-.5-.5-.5zm-59.5 6h3v15h-3V67zm4 0h5v3.1c-.3-.1-.5-.1-.8-.1-.3-.6-1-1-1.7-1s-1.4.4-1.7 1c-.3-.1-.5 0-.8.1V67zm6 0h3v15h-3V67zm4 0h3v15h-3V67zm4 0h5v3.1c-.3-.1-.5-.1-.8-.1-.3-.6-1-1-1.7-1s-1.4.4-1.7 1c-.3-.1-.5 0-.8.1V67zm6 0h3v15h-3V67zm4 0h5v3.1c-.3-.1-.5-.1-.8-.1-.3-.6-1-1-1.7-1s-1.4.4-1.7 1c-.3-.1-.5 0-.8.1V67zm6 0h3v15h-3V67zm4 0h5v3.1c-.3-.1-.5-.1-.8-.1-.3-.6-1-1-1.7-1s-1.4.4-1.7 1c-.3-.1-.5 0-.8.1V67zm6 0h3v15h-3V67zm4 0h3v15h-3V67zm4 0h5v3.1c-.3-.1-.5-.1-.8-.1-.3-.6-1-1-1.7-1s-1.4.4-1.7 1c-.3-.1-.5 0-.8.1V67zm6 0h3v15h-3V67zm-51.4 2.9c.5 0 .9.3 1 .8 0 .2.1.3.3.4.2.1.3 0 .5 0 .1-.1.2-.1.3-.1.3 0 .5.2.5.5V82h-5.2V71.5c0-.3.2-.5.5-.5.1 0 .2 0 .3.1.1.1.3.1.5 0s.3-.2.3-.4c.1-.5.5-.8 1-.8zm14 0c.5 0 .9.3 1 .8 0 .2.1.3.3.4.1.1.3 0 .5 0 .1-.1.2-.1.3-.1.3 0 .5.2.5.5V82h-5.2V71.5c0-.3.2-.5.5-.5.1 0 .2 0 .3.1.1.1.3.1.5 0s.3-.2.3-.4c.1-.5.5-.8 1-.8zm10 0c.5 0 .9.3 1 .8 0 .2.1.3.3.4.1.1.3 0 .5 0 .1-.1.2-.1.3-.1.3 0 .5.2.5.5V82h-5.2V71.5c0-.3.2-.5.5-.5.1 0 .2 0 .3.1.1.1.3.1.5 0s.3-.2.3-.4c.1-.5.5-.8 1-.8zm10 0c.5 0 .9.3 1 .8 0 .2.1.3.3.4.1.1.3 0 .5 0 .1-.1.2-.1.3-.1.3 0 .5.2.5.5V82h-5.2V71.5c0-.3.2-.5.5-.5.1 0 .2 0 .3.1.1.1.3.1.5 0s.3-.2.3-.4c.1-.5.5-.8 1-.8zm14 0c.5 0 .9.3 1 .8 0 .2.1.3.3.4.1.1.3 0 .5 0 .1-.1.2-.1.3-.1.3 0 .5.2.5.5V82h-5.2V71.5c0-.3.2-.5.5-.5.1 0 .2 0 .3.1.1.1.3.1.5 0s.3-.2.3-.4c.1-.5.5-.8 1-.8zm-53.1.1c-.3 0-.5.2-.5.5v8c0 .3.2.5.5.5s.5-.2.5-.5v-8c0-.3-.2-.5-.5-.5zm10 0c-.3 0-.5.2-.5.5v8c0 .3.2.5.5.5s.5-.2.5-.5v-8c0-.3-.2-.5-.5-.5zm4 0c-.3 0-.5.2-.5.5v8c0 .3.2.5.5.5s.5-.2.5-.5v-8c0-.3-.2-.5-.5-.5zm10 0c-.3 0-.5.2-.5.5v8c0 .3.2.5.5.5s.5-.2.5-.5v-8c0-.3-.2-.5-.5-.5zm10 0c-.3 0-.5.2-.5.5v8c0 .3.2.5.5.5s.5-.2.5-.5v-8c0-.3-.2-.5-.5-.5zm10 0c-.3 0-.5.2-.5.5v8c0 .3.2.5.5.5s.5-.2.5-.5v-8c0-.3-.2-.5-.5-.5zm4 0c-.3 0-.5.2-.5.5v8c0 .3.2.5.5.5s.5-.2.5-.5v-8c0-.3-.2-.5-.5-.5zm10 0c-.3 0-.5.2-.5.5v8c0 .3.2.5.5.5s.5-.2.5-.5v-8c0-.3-.2-.5-.5-.5zm-54 3c-.3 0-.5.2-.5.5v4c0 .3.2.5.5.5h2c.3 0 .5-.2.5-.5v-4c0-.3-.2-.5-.5-.5h-2zm14 0c-.3 0-.5.2-.5.5v4c0 .3.2.5.5.5h2c.3 0 .5-.2.5-.5v-4c0-.3-.2-.5-.5-.5h-2zm10 0c-.3 0-.5.2-.5.5v4c0 .3.2.5.5.5h2c.3 0 .5-.2.5-.5v-4c0-.3-.2-.5-.5-.5h-2zm10 0c-.3 0-.5.2-.5.5v4c0 .3.2.5.5.5h2c.3 0 .5-.2.5-.5v-4c0-.3-.2-.5-.5-.5h-2zm14 0c-.3 0-.5.2-.5.5v4c0 .3.2.5.5.5h2c.3 0 .5-.2.5-.5v-4c0-.3-.2-.5-.5-.5h-2zm-47.5 1h1v3h-1v-3zm14 0h1v3h-1v-3zm10 0h1v3h-1v-3zm10 0h1v3h-1v-3zm14 0h1v3h-1v-3z"></path></svg>