<svg xmlns="http://www.w3.org/2000/svg" xmlns:xlink="http://www.w3.org/1999/xlink" viewBox="0 0 100 100" id="victoria"><defs><linearGradient id="a"><stop offset="0" stop-color="#000092"></stop><stop offset="1" stop-color="#ff00f3"></stop></linearGradient><linearGradient id="b" x1="18.801" x2="78" y1="54" y2="54" gradientUnits="userSpaceOnUse" xlink:href="#a"></linearGradient></defs><path fill="url(#b)" d="M50.8 25.5c-.3 0-.5.2-.5.5v3.5c-1 .2-1.8 1-2 2h-.5c-.3 0-.5.2-.5.5s.2.5.5.5h.5v3.4c-2.9 1-5 3.5-5.4 6.6h-.6c-.3 0-.5.2-.5.5s.2.5.5.5h.5v2h-1.5c-.3 0-.5.2-.5.5v2c0 .3.2.5.5.5h1.4c-.2 1.1-1.2 2-2.4 2h-.5V49c0-.3-.2-.5-.5-.5s-.5.2-.5.5v1.5c-1 .2-1.8 1-2 2h-.5c-.3 0-.5.2-.5.5s.2.5.5.5h.5v5h-.5c-.3 0-.5.2-.5.5s.2.5.5.5h.5v1h-8v-1h.5c.3 0 .5-.2.5-.5s-.2-.5-.5-.5h-.5V55c0-.3-.2-.5-.5-.5s-.5.2-.5.5v.5h-1v-3h.5c.3 0 .5-.2.5-.5s-.2-.5-.5-.5h-.5c0-.9-.6-1.7-1.5-1.9V48c0-.3-.2-.5-.5-.5s-.5.2-.5.5v1.6c-.9.2-1.5 1-1.5 1.9h-.5c-.3 0-.5.2-.5.5s.2.5.5.5h.5v3h-1V55c0-.3-.2-.5-.5-.5s-.5.2-.5.5v3.5h-.5c-.3 0-.5.2-.5.5s.2.5.5.5h.5v3h-.5c-.3 0-.5.2-.5.5s.2.5.5.5h.5v8h-.5c-.3 0-.5.2-.5.5s.2.5.5.5h.5v9h-1.5c-.3 0-.5.2-.5.5s.2.5.5.5h63c.3 0 .5-.2.5-.5s-.3-.5-.6-.5h-1.5v-9h.5c.3 0 .5-.2.5-.5s-.2-.5-.5-.5h-.5v-8h.5c.3 0 .5-.2.5-.5s-.2-.5-.5-.5h-.5v-3h.5c.3 0 .5-.2.5-.5s-.2-.5-.5-.5h-.5V55c0-.3-.2-.5-.5-.5s-.5.2-.5.5v.5h-1v-3h.5c.3 0 .5-.2.5-.5s-.2-.5-.5-.5h-.5c0-.9-.6-1.7-1.5-1.9V48c0-.3-.2-.5-.5-.5s-.5.2-.5.5v1.6c-.9.2-1.5 1-1.5 1.9h-.5c-.3 0-.5.2-.5.5s.2.5.5.5h.5v3h-1V55c0-.3-.2-.5-.5-.5s-.5.2-.5.5v3.5h-.5c-.3 0-.5.2-.5.5s.2.5.5.5h.5v1h-8v-1h.5c.3 0 .5-.2.5-.5s-.2-.5-.5-.5h-.5v-5h.5c.3 0 .5-.2.5-.5s-.2-.5-.5-.5h-.5c-.2-1-1-1.8-2-2V49c0-.3-.2-.5-.5-.5s-.5.2-.5.5v1.5h-.5c-1.2 0-2.2-.9-2.4-2h1.4c.3 0 .5-.2.5-.5v-2c0-.3-.2-.5-.5-.5h-1.5v-2h.5c.3 0 .5-.2.5-.5s-.2-.5-.5-.5h-.5c-.4-3.1-2.5-5.6-5.4-6.6v-3.4h.5c.3 0 .5-.2.5-.5s-.2-.5-.5-.5h-.5c-.2-1-1-1.8-2-2V26c0-.3-.2-.5-.5-.5zm-.1 5c.7 0 1.2.4 1.4 1h-2.8c.2-.6.7-1 1.4-1zm-1.5 2h3v3.1c-.3-.1-.7-.1-1-.1V34c0-.3-.2-.5-.5-.5s-.5.2-.5.5v1.5c-.3 0-.7.1-1 .1v-3.1zm1.5 4c3.5 0 6.4 2.6 6.9 6H43.8c.5-3.4 3.4-6 6.9-6zm-7 7h1v2h-1v-2zm2 0h2v2h-2v-2zm3 0h4v2h-4v-2zm5 0h2v2h-2v-2zm3 0h1v2h-1v-2zm-6 .5a.5.5 0 0 0-.5.5.5.5 0 0 0 .5.5.5.5 0 0 0 .5-.5.5.5 0 0 0-.5-.5zm-9 2.5h18v1h-18v-1zm2 2h1.1v4h-.5c-.3 0-.5.2-.5.5s.2.5.5.5h3.5v1h-4.5c-.3 0-.5.2-.5.5v2.5h-1v-4h.5c.3 0 .5-.2.5-.5s-.2-.5-.5-.5h-.5c-.1-.4-.3-.8-.6-1.1 1.2-.4 2.3-1.5 2.5-2.9zm2 0h1v4h-1v-4zm2 0h6v4h-1v-1.1c0-1.1-.9-2-2-2s-2 .9-2 2v1.1h-1v-4zm7 0h1v4h-1v-4zm2 0h1.1c.2 1.4 1.2 2.5 2.5 2.9-.3.3-.5.7-.6 1.1h-.5c-.3 0-.5.2-.5.5s.2.5.5.5h.5v4h-1V55c0-.3-.2-.5-.5-.5h-4.5v-1h3.5c.3 0 .5-.2.5-.5s-.2-.5-.5-.5h-.5v-4zm-6 1.9c.6 0 1 .4 1 1v1.1h-2v-1.1c0-.6.4-1 1-1zm-26 .1c.6 0 1 .4 1 1h-2c0-.6.4-1 1-1zm52 0c.6 0 1 .4 1 1h-2c0-.6.5-1 1-1zm-37.5 1c.7 0 1.2.4 1.4 1h-2.8c.2-.6.8-1 1.4-1zm23 0c.6 0 1.2.4 1.4 1h-2.8c.2-.6.8-1 1.4-1zm-38.5 1h2v3h-2v-3zm52 0h2v3h-2v-3zm-38 1h3v5h-1V56c0-.3-.2-.5-.5-.5s-.5.2-.5.5v2.5h-1v-5zm11 0h4v1h-4v-1zm12 0h3v5h-1V56c0-.3-.2-.5-.5-.5s-.5.2-.5.5v2.5h-1v-5zm-17 2h2v2h-2v-2zm3 0h8v2h-8v-2zm9 0h2v2h-2v-2zm-32.6 1h4.5v2h-6v-1.9h.1l1.4-.1zm52.1 0h4.4v2h-6v-1.9h.1l1.5-.1zm-33.5 2h18v1h-18v-1zm-20 1h6v3h-6v-3zm16 0h3v.5c0 .3.2.5.5.5h1.5v2h-5v-3zm23 0h3v3h-5v-2h1.5c.3 0 .5-.2.5-.5v-.5zm13 0h6v3h-6v-3zm-49 1a.5.5 0 0 0-.5.5.5.5 0 0 0 .5.5.5.5 0 0 0 .5-.5.5.5 0 0 0-.5-.5zm19 0h2v2h-2v-2zm3 0h8v2h-8v-2zm9 0h2v2h-2v-2zm21 0a.5.5 0 0 0-.5.5.5.5 0 0 0 .5.5.5.5 0 0 0 .5-.5.5.5 0 0 0-.5-.5zm-48 1h8v1h-.5c-.3 0-.5.2-.5.5s.2.5.5.5h.5v1h-8v-1h.5c.3 0 .5-.2.5-.5s-.2-.5-.5-.5h-.5v-1zm36 0h8v1h-.5c-.3 0-.5.2-.5.5s.2.5.5.5h.5v1h-8v-1h.5c.3 0 .5-.2.5-.5s-.2-.5-.5-.5h-.5v-1zm-43 2h6v8h-6v-8zm16 0h2v18h-2v-18zm3 0h2v2.3c-.3-.2-.6-.3-1-.3s-.7.1-1 .3v-2.3zm3 0h2v18h-2v-18zm3 0h8v3c-.9-1.2-2.3-2-4-2-1.6 0-3.1.8-4 2v-3zm9 0h2v18h-2v-18zm3 0h2v2.3c-.3-.2-.6-.3-1-.3s-.7.1-1 .3v-2.3zm3 0h2v18h-2v-18zm12 0h6v8h-6v-8zm-50.5 1c-.3 0-.5.2-.5.5v4c0 .3.2.5.5.5h3c.3 0 .5-.2.5-.5v-4c0-.3-.2-.5-.5-.5h-3zm52 0c-.3 0-.5.2-.5.5v4c0 .3.2.5.5.5h3c.3 0 .5-.2.5-.5v-4c0-.3-.2-.5-.5-.5h-3zm-51.5 1h2v1h-2v-1zm5 0h8v16h-8v-9h.5c.3 0 .5-.2.5-.5s-.2-.5-.5-.5h-.5v-6zm22 0c2.2 0 4 1.8 4 4v12h-8v-12c0-2.2 1.8-4 4-4zm14 0h8v6h-.5c-.3 0-.5.2-.5.5s.2.5.5.5h.5v9h-8v-16zm11 0h2v1h-2v-1zm-44.5 1c-.3 0-.5.2-.5.5v4c0 .3.2.5.5.5h3c.3 0 .5-.2.5-.5v-4c0-.3-.2-.5-.5-.5h-3zm10.5 0c.6 0 1 .4 1 1v2h-2v-2c0-.6.4-1 1-1zm18 0c.6 0 1 .4 1 1v2h-2v-2c0-.6.4-1 1-1zm7.5 0c-.3 0-.5.2-.5.5v4c0 .3.2.5.5.5h3c.3 0 .5-.2.5-.5v-4c0-.3-.2-.5-.5-.5h-3zm-43.5 1h2v1h-2v-1zm8 0h2v1h-2v-1zm36 0h2v1h-2v-1zm8 0h2v1h-2v-1zm-44 2h2v1h-2v-1zm36 0h2v1h-2v-1zm-27 1h2v2.3c-.3-.2-.6-.3-1-.3s-.7.1-1 .3v-2.3zm18 0h2v2.3c-.3-.2-.6-.3-1-.3s-.7.1-1 .3v-2.3zm-37 2h6v9h-6v-9zm52 0h6v9h-6v-9zm-50.5 1c-.3 0-.5.2-.5.5v4c0 .3.2.5.5.5h3c.3 0 .5-.2.5-.5v-4c0-.3-.2-.5-.5-.5h-3zm8 0c-.3 0-.5.2-.5.5v4c0 .3.2.5.5.5h3c.3 0 .5-.2.5-.5v-4c0-.3-.2-.5-.5-.5h-3zm10.5 0c.6 0 1 .4 1 1v2h-2v-2c0-.6.4-1 1-1zm18 0c.6 0 1 .4 1 1v2h-2v-2c0-.6.4-1 1-1zm7.5 0c-.3 0-.5.2-.5.5v4c0 .3.2.5.5.5h3c.3 0 .5-.2.5-.5v-4c0-.3-.2-.5-.5-.5h-3zm8 0c-.3 0-.5.2-.5.5v4c0 .3.2.5.5.5h3c.3 0 .5-.2.5-.5v-4c0-.3-.2-.5-.5-.5h-3zm-51.5 1h2v3h-2v-3zm8 0h2v1h-2v-1zm36 0h2v1h-2v-1zm8 0h2v3h-2v-3zm-44 2h2v1h-2v-1zm36 0h2v1h-2v-1zm-27 1h2v4h-2v-4zm18 0h2v4h-2v-4z"></path></svg>